<svg width="569.7" height="92.5" viewBox="0 0 569.7 92.5" xmlns="http://www.w3.org/2000/svg"><g id="svgGroup" stroke-linecap="round" fill-rule="evenodd" font-size="9pt" stroke="#fd4b2c" stroke-width="0.25mm" fill="#fd4b2c" style="stroke:#fd4b2c;stroke-width:0.25mm;fill:#fd4b2c"><path d="M 186.7 70.9 L 175.9 42.7 L 165.3 69.4 A 0.871 0.871 0 0 1 165.24 69.498 Q 165.06 69.76 164.45 70.45 Q 163.7 71.3 162.9 71.3 A 1.883 1.883 0 0 1 162.59 71.277 Q 162.433 71.25 162.312 71.194 A 0.634 0.634 0 0 1 162 70.9 A 4995.004 4995.004 0 0 0 159.878 65.648 Q 158.804 62.996 157.85 60.65 A 2175.165 2175.165 0 0 0 154.689 52.917 A 1966.225 1966.225 0 0 0 154.25 51.85 A 421.342 421.342 0 0 0 150.672 43.428 A 457.838 457.838 0 0 0 150.55 43.15 Q 148.6 38.7 146.2 33.2 A 3.042 3.042 0 0 0 144.255 31.443 A 4.235 4.235 0 0 0 143.65 31.3 Q 141.8 31 140.9 31 Q 140.7 30.5 140.7 29.55 Q 140.7 28.6 140.9 28.2 A 112.49 112.49 0 0 1 142.328 28.256 Q 144.077 28.337 145.347 28.459 A 34.131 34.131 0 0 1 145.75 28.5 Q 147.559 28.696 150.468 28.7 A 89.017 89.017 0 0 0 150.6 28.7 Q 152.744 28.7 154.448 28.583 A 35.243 35.243 0 0 0 155.45 28.5 A 58.03 58.03 0 0 1 157.107 28.364 Q 158.588 28.263 160.4 28.2 A 1.095 1.095 0 0 1 160.477 28.416 Q 160.589 28.848 160.55 29.7 Q 160.508 30.623 160.29 30.913 A 0.374 0.374 0 0 1 160.2 31 A 3.838 3.838 0 0 0 159.987 31.007 Q 159.643 31.027 159.013 31.1 A 48.68 48.68 0 0 0 158.6 31.15 A 8.333 8.333 0 0 0 156.482 31.695 A 7.808 7.808 0 0 0 156.35 31.75 A 1.98 1.98 0 0 0 155.798 32.094 Q 155.355 32.494 155.306 33.138 A 2.159 2.159 0 0 0 155.3 33.3 A 0.56 0.56 0 0 0 155.318 33.414 Q 155.38 33.683 155.662 34.438 A 44.204 44.204 0 0 0 155.8 34.8 A 146.846 146.846 0 0 0 156.33 36.131 Q 157.077 37.986 158.363 41.086 A 1322.708 1322.708 0 0 0 159.2 43.1 Q 161.436 48.467 164.953 56.795 A 6272.446 6272.446 0 0 0 165.8 58.8 Q 168.71 51.527 170.593 46.803 A 4751.452 4751.452 0 0 0 171.65 44.15 Q 173.341 39.901 173.637 38.681 A 1.815 1.815 0 0 0 173.7 38.3 Q 173.7 37.894 173.271 36.663 A 32.129 32.129 0 0 0 173.05 36.05 Q 172.4 34.3 171.4 32.9 A 3.889 3.889 0 0 0 170.459 31.901 A 3.486 3.486 0 0 0 169.3 31.35 A 12.84 12.84 0 0 0 168.454 31.151 Q 168.03 31.067 167.66 31.03 A 5.612 5.612 0 0 0 167.1 31 A 0.516 0.516 0 0 1 166.885 30.78 Q 166.708 30.463 166.701 29.766 A 5.825 5.825 0 0 1 166.7 29.7 Q 166.7 28.821 166.955 28.389 A 0.947 0.947 0 0 1 167.1 28.2 Q 168.889 28.29 170.078 28.379 A 57.689 57.689 0 0 1 170.35 28.4 Q 171.6 28.5 172.8 28.6 Q 173.945 28.696 175.819 28.7 A 77.838 77.838 0 0 0 176 28.7 A 67.162 67.162 0 0 0 178.493 28.656 Q 179.664 28.613 180.705 28.526 A 39.514 39.514 0 0 0 181 28.5 Q 182.891 28.328 185.298 28.23 A 128.972 128.972 0 0 1 186.1 28.2 A 1.308 1.308 0 0 1 186.192 28.459 Q 186.3 28.879 186.3 29.65 A 5.76 5.76 0 0 1 186.286 30.074 Q 186.235 30.766 186 31 A 10.651 10.651 0 0 0 184.308 31.122 Q 181.343 31.602 181.207 33.968 A 4.04 4.04 0 0 0 181.2 34.2 Q 181.2 34.7 181.4 35.2 A 35.802 35.802 0 0 0 181.737 36.204 Q 182.47 38.303 184.15 42.6 A 1564.452 1564.452 0 0 1 185.341 45.656 Q 186.688 49.124 188.527 53.894 A 6479.054 6479.054 0 0 1 190.3 58.5 Q 193.2 51.4 195.55 45.55 Q 197.349 41.071 198.357 38.204 A 65.573 65.573 0 0 0 198.9 36.6 Q 199.13 35.988 199.242 35.492 A 5.133 5.133 0 0 0 199.3 35.2 A 12.285 12.285 0 0 0 199.344 34.919 Q 199.4 34.525 199.4 34.3 A 3.075 3.075 0 0 0 199.298 33.48 A 2.08 2.08 0 0 0 198.4 32.25 A 5.951 5.951 0 0 0 196.937 31.569 A 7.481 7.481 0 0 0 196.05 31.35 A 31.803 31.803 0 0 0 194.782 31.14 Q 194.159 31.051 193.6 31 A 0.453 0.453 0 0 1 193.459 30.832 Q 193.314 30.561 193.265 29.942 A 7.234 7.234 0 0 1 193.25 29.7 A 5.364 5.364 0 0 1 193.245 29.529 Q 193.232 28.568 193.6 28.2 Q 195.6 28.3 196.7 28.4 Q 197.8 28.5 198.95 28.6 Q 199.989 28.691 201.721 28.699 A 75.154 75.154 0 0 0 202.1 28.7 A 63.616 63.616 0 0 0 203.733 28.681 Q 205.4 28.638 206.5 28.5 Q 208.1 28.3 211 28.2 Q 211.1 28.4 211.15 29.5 A 4.378 4.378 0 0 1 211.154 29.647 Q 211.166 30.627 210.7 31 A 2.124 2.124 0 0 0 210.48 31.015 Q 210.116 31.054 209.414 31.2 A 35.886 35.886 0 0 0 208.95 31.3 A 10.409 10.409 0 0 0 207.4 31.78 A 13.399 13.399 0 0 0 206.15 32.35 Q 204.7 33.1 204.1 34.6 Q 201.579 40.949 199.538 46.033 A 2248.192 2248.192 0 0 1 199.25 46.75 L 194.95 57.45 Q 192.8 62.8 189.9 69.6 A 2.102 2.102 0 0 1 189.602 70.169 Q 189.442 70.389 189.215 70.603 A 4.1 4.1 0 0 1 189.05 70.75 A 3.563 3.563 0 0 1 188.706 71.01 Q 188.314 71.267 187.984 71.296 A 0.947 0.947 0 0 1 187.9 71.3 Q 187.228 71.3 186.918 71.12 A 0.532 0.532 0 0 1 186.7 70.9 Z M 334.85 5.55 A 20.089 20.089 0 0 0 333.619 5.381 Q 331.931 5.2 329.7 5.2 Q 324.8 5.2 320.4 7.3 Q 316 9.4 313.25 13.25 A 14.314 14.314 0 0 0 311.254 17.226 A 16.543 16.543 0 0 0 310.5 22.3 A 17 17 0 0 0 310.537 23.431 A 13.501 13.501 0 0 0 313.2 30.8 A 25.797 25.797 0 0 0 313.543 31.246 A 27.208 27.208 0 0 0 319.85 37.05 A 185.302 185.302 0 0 0 322.052 38.505 A 159.685 159.685 0 0 0 327.5 41.9 Q 330.9 43.8 333.85 45.5 A 19.714 19.714 0 0 1 335.748 46.74 A 15.669 15.669 0 0 1 338.65 49.5 Q 339.893 51.045 340.301 53.403 A 14.669 14.669 0 0 1 340.5 55.9 A 15.351 15.351 0 0 1 340.192 59.06 A 10.274 10.274 0 0 1 337 64.75 Q 333.5 67.9 328.8 67.9 A 21.418 21.418 0 0 1 328.226 67.893 Q 326.49 67.846 324.99 67.515 A 11.925 11.925 0 0 1 321.45 66.15 A 17.809 17.809 0 0 1 320.862 65.786 A 15.302 15.302 0 0 1 316.65 61.8 A 27.35 27.35 0 0 1 315.114 59.396 A 20.383 20.383 0 0 1 313.85 56.75 A 54.27 54.27 0 0 1 313.555 55.971 Q 312.851 54.069 312.6 52.9 Q 312.455 52.246 311.94 52.067 A 1.336 1.336 0 0 0 311.5 52 Q 310.8 52 310.15 52.35 Q 309.5 52.7 309 53.2 A 3.845 3.845 0 0 0 309.001 53.285 Q 309.016 53.961 309.25 56.3 Q 309.5 58.8 309.95 62.1 A 102.669 102.669 0 0 0 310.309 64.519 A 86.145 86.145 0 0 0 311 68.3 Q 313.025 68.694 315.351 69.214 A 228.604 228.604 0 0 1 319.15 70.1 Q 323.7 71.2 328.6 71.2 Q 333.8 71.2 338.45 68.95 Q 343.1 66.7 346.05 62.65 A 15.185 15.185 0 0 0 347.862 59.402 A 16.1 16.1 0 0 0 349 53.3 A 14.682 14.682 0 0 0 348.974 52.412 A 12.121 12.121 0 0 0 347.3 46.85 Q 345.6 44 342.9 41.8 Q 340.2 39.6 337.3 37.8 Q 334.4 36 332 34.5 Q 328.8 32.4 325.65 30.4 A 23.729 23.729 0 0 1 323.921 29.194 A 19.526 19.526 0 0 1 320.45 25.8 A 9.203 9.203 0 0 1 318.762 22.346 A 12.227 12.227 0 0 1 318.4 19.3 A 11.96 11.96 0 0 1 318.565 17.334 A 14.154 14.154 0 0 1 319.4 14.4 A 9.336 9.336 0 0 1 320.158 12.907 A 9.897 9.897 0 0 1 322.7 10.2 Q 324.227 9.071 326.504 8.692 A 15.214 15.214 0 0 1 329 8.5 Q 332.1 8.5 334.55 9.95 Q 337 11.4 338.75 13.6 A 21.66 21.66 0 0 1 339.279 14.293 A 18.961 18.961 0 0 1 341.5 18.2 Q 342.5 20.6 342.7 22.4 A 1.321 1.321 0 0 0 343.345 22.751 A 1.976 1.976 0 0 0 343.8 22.8 Q 344.144 22.8 344.629 22.682 A 7.647 7.647 0 0 0 345.1 22.55 A 2.532 2.532 0 0 0 345.198 22.517 Q 345.822 22.294 345.811 21.895 A 0.558 0.558 0 0 0 345.8 21.8 A 56.647 56.647 0 0 0 345.799 21.782 Q 345.699 19.782 345.35 15.75 A 121.888 121.888 0 0 0 345.328 15.497 A 112.087 112.087 0 0 0 344.4 7.9 A 358.97 358.97 0 0 1 344.324 7.881 Q 341.175 7.093 339.05 6.5 A 45.926 45.926 0 0 0 338.498 6.35 A 41.248 41.248 0 0 0 334.85 5.55 Z M 296.4 48.1 L 296.4 58.9 Q 296.4 61.1 296.45 63 A 16.186 16.186 0 0 0 296.526 64.224 Q 296.587 64.819 296.693 65.325 A 7.023 7.023 0 0 0 296.9 66.1 A 0.802 0.802 0 0 0 297.107 66.385 Q 297.466 66.717 298.35 67 Q 299.6 67.4 301 67.55 Q 302.4 67.7 303 67.7 A 1.235 1.235 0 0 1 303.16 68 Q 303.315 68.405 303.35 69.1 A 4.42 4.42 0 0 1 303.355 69.263 Q 303.367 70.134 303 70.5 L 297.75 70.15 Q 295.817 70.021 293.403 70.003 A 106.907 106.907 0 0 0 292.6 70 Q 289.8 70 287.5 70.15 A 2968.376 2968.376 0 0 0 285.354 70.291 Q 284.254 70.364 283.03 70.445 A 5170.142 5170.142 0 0 0 282.2 70.5 A 1.038 1.038 0 0 1 281.97 70.133 Q 281.825 69.756 281.848 69.155 A 4.658 4.658 0 0 1 281.85 69.1 Q 281.889 68.316 282.083 67.9 A 1.119 1.119 0 0 1 282.2 67.7 Q 282.753 67.7 284.026 67.573 A 64.141 64.141 0 0 0 284.25 67.55 A 14.585 14.585 0 0 0 286.59 67.119 A 13.235 13.235 0 0 0 287 67 A 6.355 6.355 0 0 0 287.479 66.834 Q 288.205 66.544 288.364 66.208 A 0.467 0.467 0 0 0 288.4 66.1 A 7.385 7.385 0 0 0 288.651 65.102 Q 288.745 64.588 288.797 63.987 A 16.849 16.849 0 0 0 288.85 63 Q 288.9 61.1 288.9 58.9 L 288.9 49.1 A 75.357 75.357 0 0 0 288.823 45.557 Q 288.669 42.308 288.212 40.065 A 19.586 19.586 0 0 0 288.1 39.55 A 11.793 11.793 0 0 0 287.436 37.497 Q 286.612 35.608 285.2 34.6 A 7.195 7.195 0 0 0 283.082 33.588 Q 282.123 33.298 280.97 33.181 A 16.469 16.469 0 0 0 279.3 33.1 A 6.653 6.653 0 0 0 277.551 33.349 Q 276.501 33.635 275.35 34.25 A 26.404 26.404 0 0 0 273.163 35.553 A 20.512 20.512 0 0 0 271.6 36.7 Q 270 38 270 38.5 L 270 58.9 Q 270 61.1 270.05 63 A 16.186 16.186 0 0 0 270.126 64.224 Q 270.187 64.819 270.293 65.325 A 7.023 7.023 0 0 0 270.5 66.1 A 0.802 0.802 0 0 0 270.707 66.385 Q 271.066 66.717 271.95 67 Q 273.2 67.4 274.6 67.55 Q 276 67.7 276.6 67.7 A 1.235 1.235 0 0 1 276.76 68 Q 276.915 68.405 276.95 69.1 A 4.42 4.42 0 0 1 276.955 69.263 Q 276.967 70.134 276.6 70.5 L 271.35 70.15 Q 269.417 70.021 267.003 70.003 A 106.907 106.907 0 0 0 266.2 70 Q 263.4 70 261.1 70.15 A 2968.376 2968.376 0 0 0 258.954 70.291 Q 257.488 70.388 255.8 70.5 A 1.038 1.038 0 0 1 255.57 70.133 Q 255.425 69.756 255.448 69.155 A 4.658 4.658 0 0 1 255.45 69.1 Q 255.489 68.316 255.683 67.9 A 1.119 1.119 0 0 1 255.8 67.7 Q 256.353 67.7 257.626 67.573 A 64.141 64.141 0 0 0 257.85 67.55 A 14.585 14.585 0 0 0 260.19 67.119 A 13.235 13.235 0 0 0 260.6 67 A 6.355 6.355 0 0 0 261.079 66.834 Q 261.805 66.544 261.964 66.208 A 0.467 0.467 0 0 0 262 66.1 A 7.385 7.385 0 0 0 262.251 65.102 Q 262.345 64.588 262.397 63.987 A 16.849 16.849 0 0 0 262.45 63 Q 262.5 61.1 262.5 58.9 L 262.5 41.1 Q 262.5 40.1 262.45 38.3 A 13.944 13.944 0 0 0 262.394 37.359 Q 262.288 36.247 262 35.6 Q 261.766 34.897 260.86 34.53 A 4.202 4.202 0 0 0 260.3 34.35 Q 258.9 34 257.5 33.95 A 214.914 214.914 0 0 0 256.935 33.931 Q 256.013 33.9 255.7 33.9 Q 255.601 33.701 255.501 32.713 A 25.192 25.192 0 0 1 255.5 32.7 Q 255.401 31.709 255.695 31.307 A 0.741 0.741 0 0 1 255.7 31.3 Q 259.5 30.8 263.1 29.8 A 32.212 32.212 0 0 0 267.327 28.316 A 26.933 26.933 0 0 0 269.6 27.2 A 0.587 0.587 0 0 1 269.935 27.311 Q 270.151 27.458 270.35 27.8 A 3.851 3.851 0 0 1 270.519 28.122 Q 270.675 28.458 270.697 28.718 A 0.988 0.988 0 0 1 270.7 28.8 Q 270.7 29.1 270.55 30.35 Q 270.4 31.6 270.25 32.8 Q 270.121 33.835 270.103 34.275 A 3.13 3.13 0 0 0 270.1 34.4 A 1.201 1.201 0 0 0 270.107 34.534 Q 270.137 34.8 270.3 34.8 Q 270.4 34.8 270.6 34.6 Q 271.6 33.5 273.85 31.8 A 31.296 31.296 0 0 1 278.132 29.093 A 34.905 34.905 0 0 1 278.8 28.75 A 14.731 14.731 0 0 1 280.848 27.901 Q 282.01 27.526 283.087 27.432 A 8.181 8.181 0 0 1 283.8 27.4 A 20.487 20.487 0 0 1 286.718 27.594 Q 288.21 27.809 289.42 28.264 A 8.414 8.414 0 0 1 291.8 29.6 A 9.166 9.166 0 0 1 294.119 32.507 Q 294.765 33.743 295.186 35.289 A 18.535 18.535 0 0 1 295.45 36.4 Q 296.096 39.527 296.303 43.808 A 89.169 89.169 0 0 1 296.4 48.1 Z M 441.1 48.1 L 441.1 58.9 Q 441.1 61.1 441.15 63 A 16.186 16.186 0 0 0 441.226 64.224 Q 441.287 64.819 441.393 65.325 A 7.023 7.023 0 0 0 441.6 66.1 A 0.802 0.802 0 0 0 441.807 66.385 Q 442.166 66.717 443.05 67 Q 444.3 67.4 445.7 67.55 Q 447.1 67.7 447.7 67.7 A 1.235 1.235 0 0 1 447.86 68 Q 448.015 68.405 448.05 69.1 A 4.42 4.42 0 0 1 448.055 69.263 Q 448.067 70.134 447.7 70.5 L 442.45 70.15 Q 440.517 70.021 438.103 70.003 A 106.907 106.907 0 0 0 437.3 70 Q 434.5 70 432.2 70.15 A 2968.376 2968.376 0 0 0 430.054 70.291 Q 428.954 70.364 427.73 70.445 A 5170.142 5170.142 0 0 0 426.9 70.5 A 1.038 1.038 0 0 1 426.67 70.133 Q 426.525 69.756 426.548 69.155 A 4.658 4.658 0 0 1 426.55 69.1 Q 426.589 68.316 426.783 67.9 A 1.119 1.119 0 0 1 426.9 67.7 Q 427.453 67.7 428.726 67.573 A 64.141 64.141 0 0 0 428.95 67.55 A 14.585 14.585 0 0 0 431.29 67.119 A 13.235 13.235 0 0 0 431.7 67 A 6.355 6.355 0 0 0 432.179 66.834 Q 432.905 66.544 433.064 66.208 A 0.467 0.467 0 0 0 433.1 66.1 A 7.385 7.385 0 0 0 433.351 65.102 Q 433.445 64.588 433.497 63.987 A 16.849 16.849 0 0 0 433.55 63 Q 433.6 61.1 433.6 58.9 L 433.6 49.1 A 75.357 75.357 0 0 0 433.523 45.557 Q 433.369 42.308 432.912 40.065 A 19.586 19.586 0 0 0 432.8 39.55 A 11.793 11.793 0 0 0 432.136 37.497 Q 431.312 35.608 429.9 34.6 A 7.195 7.195 0 0 0 427.782 33.588 Q 426.823 33.298 425.67 33.181 A 16.469 16.469 0 0 0 424 33.1 A 6.653 6.653 0 0 0 422.251 33.349 Q 421.201 33.635 420.05 34.25 A 26.404 26.404 0 0 0 417.863 35.553 A 20.512 20.512 0 0 0 416.3 36.7 Q 414.7 38 414.7 38.5 L 414.7 58.9 Q 414.7 61.1 414.75 63 A 16.186 16.186 0 0 0 414.826 64.224 Q 414.887 64.819 414.993 65.325 A 7.023 7.023 0 0 0 415.2 66.1 A 0.802 0.802 0 0 0 415.407 66.385 Q 415.766 66.717 416.65 67 Q 417.9 67.4 419.3 67.55 Q 420.7 67.7 421.3 67.7 A 1.235 1.235 0 0 1 421.46 68 Q 421.615 68.405 421.65 69.1 A 4.42 4.42 0 0 1 421.655 69.263 Q 421.667 70.134 421.3 70.5 L 416.05 70.15 Q 414.117 70.021 411.703 70.003 A 106.907 106.907 0 0 0 410.9 70 Q 408.1 70 405.8 70.15 A 2968.376 2968.376 0 0 0 403.654 70.291 Q 402.188 70.388 400.5 70.5 A 1.038 1.038 0 0 1 400.27 70.133 Q 400.125 69.756 400.148 69.155 A 4.658 4.658 0 0 1 400.15 69.1 Q 400.189 68.316 400.383 67.9 A 1.119 1.119 0 0 1 400.5 67.7 Q 401.053 67.7 402.326 67.573 A 64.141 64.141 0 0 0 402.55 67.55 A 14.585 14.585 0 0 0 404.89 67.119 A 13.235 13.235 0 0 0 405.3 67 A 6.355 6.355 0 0 0 405.779 66.834 Q 406.505 66.544 406.664 66.208 A 0.467 0.467 0 0 0 406.7 66.1 A 7.385 7.385 0 0 0 406.951 65.102 Q 407.045 64.588 407.097 63.987 A 16.849 16.849 0 0 0 407.15 63 Q 407.2 61.1 407.2 58.9 L 407.2 41.1 Q 407.2 40.1 407.15 38.3 A 13.944 13.944 0 0 0 407.094 37.359 Q 406.988 36.247 406.7 35.6 Q 406.466 34.897 405.56 34.53 A 4.202 4.202 0 0 0 405 34.35 Q 403.6 34 402.2 33.95 A 214.914 214.914 0 0 0 401.635 33.931 Q 400.713 33.9 400.4 33.9 Q 400.301 33.701 400.201 32.713 A 25.192 25.192 0 0 1 400.2 32.7 Q 400.101 31.709 400.395 31.307 A 0.741 0.741 0 0 1 400.4 31.3 Q 404.2 30.8 407.8 29.8 A 32.212 32.212 0 0 0 412.027 28.316 A 26.933 26.933 0 0 0 414.3 27.2 A 0.587 0.587 0 0 1 414.635 27.311 Q 414.851 27.458 415.05 27.8 A 3.851 3.851 0 0 1 415.219 28.122 Q 415.375 28.458 415.397 28.718 A 0.988 0.988 0 0 1 415.4 28.8 Q 415.4 29.1 415.25 30.35 Q 415.1 31.6 414.95 32.8 Q 414.821 33.835 414.803 34.275 A 3.13 3.13 0 0 0 414.8 34.4 A 1.201 1.201 0 0 0 414.807 34.534 Q 414.837 34.8 415 34.8 Q 415.1 34.8 415.3 34.6 Q 416.3 33.5 418.55 31.8 A 31.296 31.296 0 0 1 422.832 29.093 A 34.905 34.905 0 0 1 423.5 28.75 A 14.731 14.731 0 0 1 425.548 27.901 Q 426.71 27.526 427.787 27.432 A 8.181 8.181 0 0 1 428.5 27.4 A 20.487 20.487 0 0 1 431.418 27.594 Q 432.91 27.809 434.12 28.264 A 8.414 8.414 0 0 1 436.5 29.6 A 9.166 9.166 0 0 1 438.819 32.507 Q 439.465 33.743 439.886 35.289 A 18.535 18.535 0 0 1 440.15 36.4 Q 440.796 39.527 441.003 43.808 A 89.169 89.169 0 0 1 441.1 48.1 Z M 365.8 33.1 L 376.2 59.5 L 377 57.35 A 257.504 257.504 0 0 1 377.431 56.2 Q 378.028 54.621 378.831 52.543 A 761.261 761.261 0 0 1 379.1 51.85 Q 380.4 48.5 381.9 44.6 Q 383.4 40.7 384.8 37.3 A 6.662 6.662 0 0 0 385.155 36.303 A 5.397 5.397 0 0 0 385.3 35.55 A 20.438 20.438 0 0 0 385.353 35.053 Q 385.393 34.616 385.399 34.3 A 5.524 5.524 0 0 0 385.4 34.2 A 2.413 2.413 0 0 0 384.464 32.261 A 3.924 3.924 0 0 0 383.85 31.85 A 6.258 6.258 0 0 0 382.32 31.271 Q 381.627 31.102 380.816 31.038 A 13.029 13.029 0 0 0 379.8 31 A 0.266 0.266 0 0 1 379.571 30.856 Q 379.428 30.627 379.405 30.039 A 6.124 6.124 0 0 1 379.4 29.8 Q 379.4 28.916 379.617 28.466 A 0.965 0.965 0 0 1 379.8 28.2 A 266.498 266.498 0 0 0 380.428 28.256 Q 381.435 28.346 383.076 28.485 A 1706.544 1706.544 0 0 0 383.25 28.5 A 52.484 52.484 0 0 0 385.596 28.644 Q 386.83 28.693 388.205 28.699 A 88.067 88.067 0 0 0 388.6 28.7 Q 391.4 28.7 393.35 28.5 Q 395.026 28.328 396.369 28.23 A 68.931 68.931 0 0 1 396.8 28.2 A 0.808 0.808 0 0 1 396.917 28.435 Q 397.049 28.838 396.971 29.618 A 7.747 7.747 0 0 1 396.95 29.8 Q 396.8 31 396.5 31 Q 396.1 31 394.85 31.3 A 10.317 10.317 0 0 0 393.412 31.764 A 13.316 13.316 0 0 0 392.25 32.3 Q 390.9 33 390.3 34.4 Q 388.117 39.559 386.378 43.734 A 1286.936 1286.936 0 0 0 386.35 43.8 A 9948.947 9948.947 0 0 1 383.364 50.959 A 9071.879 9071.879 0 0 1 382.95 51.95 Q 381.3 55.9 379.55 60.15 Q 377.8 64.4 375.7 69.6 Q 373.9 74.1 372.2 78.6 Q 370.5 83.1 367.9 87 Q 366.3 89.5 364.05 91 Q 361.8 92.5 359.4 92.5 Q 358 92.5 356.6 91.7 A 2.428 2.428 0 0 1 355.584 90.529 Q 355.203 89.668 355.2 88.32 A 9.649 9.649 0 0 1 355.2 88.3 Q 355.2 87.4 355.55 86.6 Q 355.9 85.8 356.3 85.4 A 36.034 36.034 0 0 0 358.207 85.352 Q 359.366 85.291 360.35 85.15 A 7.079 7.079 0 0 0 362.709 84.357 A 9.066 9.066 0 0 0 363.75 83.7 Q 364.859 82.894 366.125 81.456 A 30.429 30.429 0 0 0 367.4 79.9 Q 368.2 78.8 369.2 76.65 Q 370.2 74.5 371.05 72.5 Q 371.9 70.5 372 70 Q 369.3 63 366.9 56.95 Q 364.5 50.9 362.05 45.05 Q 359.6 39.2 356.7 33 A 2.905 2.905 0 0 0 354.793 31.375 A 4.189 4.189 0 0 0 354.2 31.25 Q 352.4 31 351.5 31 L 351.3 31 A 0.055 0.055 0 0 1 351.266 30.953 Q 351.201 30.749 351.2 29.664 A 36.285 36.285 0 0 1 351.2 29.65 A 30.456 30.456 0 0 1 351.202 29.332 Q 351.21 28.514 351.266 28.283 A 0.193 0.193 0 0 1 351.3 28.201 A 766.759 766.759 0 0 1 352.081 28.256 Q 352.971 28.321 354.206 28.412 A 3330.953 3330.953 0 0 1 355.4 28.5 A 74.006 74.006 0 0 0 359.436 28.684 A 86.265 86.265 0 0 0 361.1 28.7 Q 363.9 28.7 366.75 28.5 Q 369.494 28.308 370.801 28.208 A 189.862 189.862 0 0 0 370.9 28.2 A 0.957 0.957 0 0 1 370.97 28.402 Q 371.069 28.806 371.014 29.618 A 11.498 11.498 0 0 1 371 29.8 A 5.598 5.598 0 0 1 370.957 30.177 Q 370.831 31 370.5 31 A 3.744 3.744 0 0 0 370.356 31.004 Q 370.005 31.018 369.151 31.088 A 108.017 108.017 0 0 0 369 31.1 Q 367.8 31.2 366.75 31.55 A 2.459 2.459 0 0 0 366.316 31.739 Q 366.085 31.87 365.941 32.038 A 0.984 0.984 0 0 0 365.7 32.7 A 0.851 0.851 0 0 0 365.759 33.006 A 1.045 1.045 0 0 0 365.8 33.1 Z M 73.9 70.5 L 49.5 70.5 A 1.038 1.038 0 0 1 49.27 70.133 Q 49.125 69.756 49.148 69.155 A 4.658 4.658 0 0 1 49.15 69.1 Q 49.189 68.316 49.383 67.9 A 1.119 1.119 0 0 1 49.5 67.7 Q 50.1 67.7 51.7 67.55 Q 53.3 67.4 54.75 67 A 7.75 7.75 0 0 0 55.246 66.847 Q 56.219 66.506 56.3 66.1 A 7.385 7.385 0 0 0 56.551 65.102 Q 56.645 64.588 56.697 63.987 A 16.849 16.849 0 0 0 56.75 63 Q 56.8 61.1 56.8 58.9 L 56.8 17.2 Q 56.8 15 56.75 13.05 A 17.174 17.174 0 0 0 56.685 11.905 Q 56.575 10.725 56.3 9.9 Q 56.2 9.3 54.75 9 Q 53.3 8.7 51.7 8.55 Q 50.315 8.42 49.68 8.403 A 6.589 6.589 0 0 0 49.5 8.4 A 1.235 1.235 0 0 1 49.341 8.101 Q 49.185 7.695 49.15 7 A 4.42 4.42 0 0 1 49.145 6.838 Q 49.133 5.967 49.5 5.6 Q 52.5 5.7 55.4 5.85 Q 58.3 6 61.1 6 A 412.954 412.954 0 0 0 63.43 5.993 Q 64.465 5.987 65.608 5.977 A 773.537 773.537 0 0 0 68 5.95 A 688.958 688.958 0 0 1 71.687 5.913 Q 73.434 5.901 74.993 5.9 A 413.991 413.991 0 0 1 75.2 5.9 A 46.262 46.262 0 0 1 83.988 6.695 A 33.555 33.555 0 0 1 93.6 10.05 A 30.139 30.139 0 0 1 102.486 17.174 A 28.49 28.49 0 0 1 105.4 21.35 Q 109.5 28.5 109.5 37.6 Q 109.5 43.8 107.8 49.7 Q 106.1 55.6 102.05 60.3 A 24.845 24.845 0 0 1 96.056 65.304 A 33.289 33.289 0 0 1 91.1 67.75 Q 85.445 70.004 77.507 70.411 A 70.527 70.527 0 0 1 73.9 70.5 Z M 244.5 41 L 244.5 61.1 Q 244.5 62.914 245.138 64.227 A 5.329 5.329 0 0 0 245.2 64.35 Q 245.804 65.515 247.078 65.675 A 3.391 3.391 0 0 0 247.5 65.7 A 5.297 5.297 0 0 0 248.354 65.636 Q 249.163 65.503 249.7 65.1 Q 250.5 64.5 250.7 64.4 Q 250.859 64.4 250.955 64.59 A 0.822 0.822 0 0 1 251 64.7 A 2.608 2.608 0 0 1 251.053 64.878 Q 251.1 65.063 251.1 65.2 A 4.059 4.059 0 0 1 250.99 66.166 A 3.17 3.17 0 0 1 250.6 67.1 Q 250 67.6 248.65 68.5 Q 247.3 69.4 245.85 70.1 A 8.867 8.867 0 0 1 244.895 70.499 Q 244.404 70.668 243.961 70.742 A 4.002 4.002 0 0 1 243.3 70.8 Q 241.251 70.8 239.63 68.8 A 8.477 8.477 0 0 1 239.55 68.7 A 12.553 12.553 0 0 1 238.222 66.642 A 9.658 9.658 0 0 1 237.4 64.4 A 4.887 4.887 0 0 1 237.175 64.609 Q 236.798 64.94 236.046 65.521 A 70.689 70.689 0 0 1 235.55 65.9 Q 234.1 67 232.2 68.15 Q 230.3 69.3 228.45 70.15 Q 227.246 70.703 226.275 70.897 A 5.012 5.012 0 0 1 225.3 71 A 11.685 11.685 0 0 1 220.623 70.083 A 11.156 11.156 0 0 1 217.2 67.75 A 10.709 10.709 0 0 1 213.901 59.983 A 13.269 13.269 0 0 1 213.9 59.8 A 9.11 9.11 0 0 1 214.3 57.053 A 7.724 7.724 0 0 1 215.55 54.65 A 13.088 13.088 0 0 1 216.551 53.484 Q 217.084 52.937 217.611 52.555 A 5.077 5.077 0 0 1 218.8 51.9 Q 221.6 50.9 225.05 49.75 Q 228.5 48.6 231.5 47.5 Q 234.5 46.4 235.9 45.8 A 3.265 3.265 0 0 0 236.282 45.631 Q 236.753 45.381 236.9 45.05 Q 237.086 44.633 237.099 43.484 A 15.724 15.724 0 0 0 237.1 43.3 L 237.1 40.7 A 9.211 9.211 0 0 0 236.346 37.091 A 11.108 11.108 0 0 0 236 36.35 Q 234.9 34.2 233 32.75 Q 231.1 31.3 228.7 31.3 A 6.179 6.179 0 0 0 227.265 31.456 A 3.845 3.845 0 0 0 225 32.9 A 7.362 7.362 0 0 0 224.141 34.414 Q 223.818 35.164 223.582 36.076 A 16.462 16.462 0 0 0 223.3 37.4 A 9.416 9.416 0 0 1 222.749 39.289 Q 221.562 42.1 218.7 42.1 A 3.124 3.124 0 0 1 217.585 41.91 Q 216.825 41.622 216.317 40.899 A 3.515 3.515 0 0 1 216.25 40.8 Q 215.4 39.5 215.4 38 A 1.612 1.612 0 0 1 215.411 37.829 Q 215.439 37.572 215.539 37.118 A 18.693 18.693 0 0 1 215.6 36.85 A 6.116 6.116 0 0 1 215.728 36.385 Q 215.872 35.936 216.055 35.664 A 1.531 1.531 0 0 1 216.1 35.6 Q 217.532 34.264 220.147 32.473 A 70.435 70.435 0 0 1 220.4 32.3 A 30.701 30.701 0 0 1 224.592 29.93 A 36.954 36.954 0 0 1 226.75 29 A 19.925 19.925 0 0 1 231.608 27.737 A 17.737 17.737 0 0 1 233.8 27.6 A 8.549 8.549 0 0 1 238.51 29.028 A 10.702 10.702 0 0 1 239.05 29.4 A 12.698 12.698 0 0 1 242.398 33.107 A 15.396 15.396 0 0 1 243 34.2 A 14.201 14.201 0 0 1 244.381 38.926 A 17.692 17.692 0 0 1 244.5 41 Z M 521.6 0.9 L 497.3 86.6 Q 497.209 87.058 496.196 87.85 A 12.017 12.017 0 0 1 496 88 Q 494.9 88.8 493.5 88.8 Q 493.031 88.8 492.475 88.624 A 4.943 4.943 0 0 1 492.4 88.6 L 491.8 88.3 L 491.7 88.1 L 516.5 1.4 A 0.23 0.23 0 0 1 516.539 1.282 Q 516.623 1.142 516.895 0.966 A 3.442 3.442 0 0 1 517 0.9 A 2.05 2.05 0 0 1 517.273 0.731 Q 517.578 0.571 518.055 0.41 A 10.831 10.831 0 0 1 518.4 0.3 A 5.794 5.794 0 0 1 519.603 0.042 A 7.304 7.304 0 0 1 520.4 0 Q 521.3 0 521.6 0.9 Z M 486.2 32.5 Q 486.2 35.1 485 36.15 A 4.835 4.835 0 0 1 484.086 36.79 A 3.347 3.347 0 0 1 482.5 37.2 A 3.742 3.742 0 0 1 480.486 36.597 A 5.613 5.613 0 0 1 479.5 35.8 Q 478.248 34.548 477.075 33.776 A 10.593 10.593 0 0 0 476.8 33.6 A 25.739 25.739 0 0 0 475.903 33.009 Q 475.046 32.471 474.407 32.187 A 6.077 6.077 0 0 0 474.2 32.1 A 4.426 4.426 0 0 0 473.487 31.889 Q 472.73 31.727 471.659 31.704 A 16.839 16.839 0 0 0 471.3 31.7 A 7.444 7.444 0 0 0 468.15 32.424 A 10.698 10.698 0 0 0 466.15 33.65 Q 463.604 35.597 461.956 39.188 A 20.14 20.14 0 0 0 461.95 39.2 A 16.956 16.956 0 0 0 460.766 42.927 Q 460.3 45.238 460.3 48 A 24.873 24.873 0 0 0 460.706 52.65 Q 461.201 55.248 462.3 57.254 A 11.737 11.737 0 0 0 464.9 60.5 A 16.211 16.211 0 0 0 474.88 64.465 A 20.894 20.894 0 0 0 476.1 64.5 A 14.53 14.53 0 0 0 479.054 64.216 Q 480.954 63.822 482.435 62.88 A 8.936 8.936 0 0 0 482.85 62.6 Q 484.848 61.168 485.908 60.19 A 9.615 9.615 0 0 0 486.5 59.6 A 0.13 0.13 0 0 1 486.553 59.616 Q 486.67 59.672 486.931 59.932 A 6.713 6.713 0 0 1 486.95 59.95 A 1.164 1.164 0 0 1 487.266 60.55 A 1.708 1.708 0 0 1 487.3 60.9 A 2.583 2.583 0 0 1 487.193 61.611 Q 487.047 62.122 486.7 62.7 Q 485.841 64.036 484.072 65.873 A 43.401 43.401 0 0 1 483.9 66.05 A 16.415 16.415 0 0 1 481.446 68.102 A 21.699 21.699 0 0 1 479.1 69.5 A 13.283 13.283 0 0 1 474.906 70.823 A 17.141 17.141 0 0 1 472.4 71 Q 466.5 71 462.05 68.2 Q 457.6 65.4 455.15 60.9 Q 452.7 56.4 452.7 51.3 A 22.342 22.342 0 0 1 453.493 45.258 A 19.451 19.451 0 0 1 454.95 41.55 Q 457.2 37.2 460.75 34 A 26.803 26.803 0 0 1 467.168 29.668 A 24.951 24.951 0 0 1 468.45 29.1 Q 472.6 27.4 476.4 27.4 Q 481.8 27.4 485.2 29.8 A 1.646 1.646 0 0 1 485.373 30.008 Q 485.541 30.245 485.724 30.625 A 8.457 8.457 0 0 1 485.85 30.9 Q 486.2 31.7 486.2 32.5 Z M 38.4 71.5 L 1.8 52.9 A 3.611 3.611 0 0 1 1.055 52.37 A 2.652 2.652 0 0 1 0.35 51.3 A 6.02 6.02 0 0 1 0.077 50.153 A 8.232 8.232 0 0 1 0 49 A 1.917 1.917 0 0 1 0.162 48.205 A 1.862 1.862 0 0 1 0.55 47.65 Q 1.1 47.1 1.8 46.7 L 37.8 28.4 A 7.069 7.069 0 0 1 37.94 28.332 Q 38.219 28.2 38.3 28.2 Q 38.489 28.2 38.944 29.044 A 12.026 12.026 0 0 1 39 29.15 Q 39.483 30.068 39.966 32.617 A 45.819 45.819 0 0 1 40 32.8 Q 40.068 33.071 39.998 33.273 A 0.59 0.59 0 0 1 39.9 33.45 L 39.7 33.7 L 7.8 49.8 L 40.2 66.2 L 40.35 66.3 A 0.25 0.25 0 0 1 40.432 66.398 Q 40.48 66.492 40.494 66.653 A 1.692 1.692 0 0 1 40.5 66.8 A 1.505 1.505 0 0 1 40.491 66.944 Q 40.456 67.295 40.281 68.15 A 45.569 45.569 0 0 1 40.25 68.3 Q 40 69.5 39.6 70.6 A 7.468 7.468 0 0 1 39.457 70.967 Q 39.145 71.7 38.9 71.7 Q 38.801 71.7 38.411 71.505 A 8.576 8.576 0 0 1 38.4 71.5 Z M 529.6 66.2 L 561.9 49.8 L 530.2 33.7 L 530.05 33.55 Q 529.901 33.401 529.9 32.904 A 3.309 3.309 0 0 1 529.9 32.9 A 7.617 7.617 0 0 1 530.06 31.39 Q 530.21 30.649 530.5 29.85 A 16.951 16.951 0 0 1 530.698 29.332 Q 531.152 28.2 531.4 28.2 Q 531.5 28.2 531.9 28.4 L 568.1 46.7 A 3.701 3.701 0 0 1 568.874 47.206 A 2.277 2.277 0 0 1 569.7 49 A 11.607 11.607 0 0 1 569.652 50.08 Q 569.591 50.738 569.45 51.3 Q 569.2 52.3 568.1 52.9 L 531.4 71.5 A 7.069 7.069 0 0 1 531.261 71.568 Q 530.981 71.7 530.9 71.7 A 0.257 0.257 0 0 1 530.739 71.63 Q 530.555 71.478 530.34 70.992 A 6.986 6.986 0 0 1 530.2 70.65 A 14.362 14.362 0 0 1 529.667 68.918 A 16.421 16.421 0 0 1 529.55 68.4 A 29.163 29.163 0 0 1 529.453 67.913 Q 529.327 67.253 529.305 66.925 A 1.881 1.881 0 0 1 529.3 66.8 A 0.956 0.956 0 0 1 529.314 66.631 Q 529.331 66.539 529.367 66.466 A 0.445 0.445 0 0 1 529.45 66.35 L 529.6 66.2 Z M 65.4 17.4 L 65.4 59 L 65.4 61.25 A 29.49 29.49 0 0 0 65.515 63.886 A 26.94 26.94 0 0 0 65.55 64.25 Q 65.7 65.7 65.9 66 A 1.667 1.667 0 0 0 66.393 66.421 Q 67.171 66.882 68.816 67.096 A 15.581 15.581 0 0 0 68.85 67.1 A 37.118 37.118 0 0 0 71.924 67.358 A 45.171 45.171 0 0 0 73.9 67.4 Q 80.9 67.4 86.75 64.4 A 22.639 22.639 0 0 0 95.265 56.738 A 27.613 27.613 0 0 0 96.2 55.25 A 24.556 24.556 0 0 0 98.843 48.506 Q 99.8 44.499 99.8 39.6 Q 99.8 32.704 98.247 27.534 A 27.488 27.488 0 0 0 97.55 25.5 Q 95.3 19.7 91.45 16.05 Q 87.6 12.4 82.75 10.75 Q 77.9 9.1 72.6 9.1 Q 72.107 9.1 70.937 9.134 A 230.229 230.229 0 0 0 70.4 9.15 A 29.246 29.246 0 0 0 68.478 9.271 A 24.275 24.275 0 0 0 67.4 9.4 A 6.628 6.628 0 0 0 66.881 9.494 Q 65.96 9.702 65.8 10.1 Q 65.5 11.1 65.45 12.75 Q 65.4 14.4 65.4 16.2 L 65.4 16.8 L 65.4 17.4 Z M 132.1 35.2 L 132.1 58.9 Q 132.1 61.1 132.15 63 A 16.186 16.186 0 0 0 132.226 64.224 Q 132.287 64.819 132.393 65.325 A 7.023 7.023 0 0 0 132.6 66.1 A 0.802 0.802 0 0 0 132.807 66.385 Q 133.166 66.717 134.05 67 Q 135.3 67.4 136.7 67.55 Q 138.1 67.7 138.7 67.7 A 1.235 1.235 0 0 1 138.86 68 Q 139.015 68.405 139.05 69.1 A 4.42 4.42 0 0 1 139.055 69.263 Q 139.067 70.134 138.7 70.5 L 133.45 70.15 Q 131.517 70.021 129.103 70.003 A 106.907 106.907 0 0 0 128.3 70 Q 125.5 70 123.2 70.15 A 2968.376 2968.376 0 0 0 121.054 70.291 Q 119.588 70.388 117.9 70.5 A 1.038 1.038 0 0 1 117.67 70.133 Q 117.525 69.756 117.548 69.155 A 4.658 4.658 0 0 1 117.55 69.1 Q 117.589 68.316 117.783 67.9 A 1.119 1.119 0 0 1 117.9 67.7 Q 118.453 67.7 119.726 67.573 A 64.141 64.141 0 0 0 119.95 67.55 A 14.585 14.585 0 0 0 122.29 67.119 A 13.235 13.235 0 0 0 122.7 67 A 6.355 6.355 0 0 0 123.179 66.834 Q 123.905 66.544 124.064 66.208 A 0.467 0.467 0 0 0 124.1 66.1 A 7.385 7.385 0 0 0 124.351 65.102 Q 124.445 64.588 124.497 63.987 A 16.849 16.849 0 0 0 124.55 63 Q 124.6 61.1 124.6 58.9 L 124.6 40.7 Q 124.6 39.806 124.56 38.431 A 154.584 154.584 0 0 0 124.55 38.1 A 11.207 11.207 0 0 0 124.485 37.169 Q 124.379 36.25 124.118 35.642 A 3.267 3.267 0 0 0 124.1 35.6 Q 123.866 34.897 122.96 34.53 A 4.202 4.202 0 0 0 122.4 34.35 Q 121 34 119.6 33.95 A 214.914 214.914 0 0 0 119.035 33.931 Q 118.113 33.9 117.8 33.9 Q 117.701 33.701 117.601 32.713 A 25.192 25.192 0 0 1 117.6 32.7 Q 117.501 31.709 117.795 31.307 A 0.741 0.741 0 0 1 117.8 31.3 Q 121.6 30.8 125.2 29.8 A 32.212 32.212 0 0 0 129.427 28.316 A 26.933 26.933 0 0 0 131.7 27.2 A 0.587 0.587 0 0 1 132.035 27.311 Q 132.251 27.458 132.45 27.8 A 3.851 3.851 0 0 1 132.619 28.122 Q 132.775 28.458 132.797 28.718 A 0.988 0.988 0 0 1 132.8 28.8 A 2.155 2.155 0 0 1 132.793 28.951 Q 132.763 29.363 132.6 30.5 Q 132.4 31.9 132.25 33.3 Q 132.12 34.512 132.103 35.049 A 4.686 4.686 0 0 0 132.1 35.2 Z M 237.1 61.7 L 237.1 48.4 A 637.144 637.144 0 0 1 236.088 48.719 Q 234.582 49.192 232.587 49.811 A 1810.437 1810.437 0 0 1 232.3 49.9 Q 229.426 50.792 228.025 51.291 A 34.115 34.115 0 0 0 228 51.3 A 11.532 11.532 0 0 0 225.102 52.902 A 10.227 10.227 0 0 0 223.7 54.2 A 6.63 6.63 0 0 0 222.027 58.214 A 8.701 8.701 0 0 0 222 58.9 Q 222 61.6 223.9 63.65 A 6.129 6.129 0 0 0 228.34 65.696 A 7.481 7.481 0 0 0 228.6 65.7 Q 230.194 65.7 232.051 64.997 A 14.334 14.334 0 0 0 232.3 64.9 A 21.953 21.953 0 0 0 233.935 64.171 Q 234.913 63.685 235.7 63.15 Q 237.1 62.2 237.1 61.7 Z M 124.105 8.896 A 4.703 4.703 0 0 0 122.7 12.3 A 4.805 4.805 0 0 0 122.988 13.972 A 4.897 4.897 0 0 0 124.15 15.75 A 5.902 5.902 0 0 0 124.196 15.795 A 4.703 4.703 0 0 0 127.6 17.2 A 4.805 4.805 0 0 0 129.272 16.913 A 4.897 4.897 0 0 0 131.05 15.75 A 5.902 5.902 0 0 0 131.095 15.705 A 4.703 4.703 0 0 0 132.5 12.3 A 4.805 4.805 0 0 0 132.213 10.628 A 4.897 4.897 0 0 0 131.05 8.85 A 5.902 5.902 0 0 0 131.005 8.805 A 4.703 4.703 0 0 0 127.6 7.4 A 4.805 4.805 0 0 0 125.928 7.688 A 4.897 4.897 0 0 0 124.15 8.85 A 5.902 5.902 0 0 0 124.105 8.896 Z" vector-effect="non-scaling-stroke"/></g></svg>